<svg xmlns="http://www.w3.org/2000/svg" xmlns:xlink="http://www.w3.org/1999/xlink" xmlns:lucid="lucid" width="437.33" height="484.93"><g transform="translate(-441.33333333333337 10.731071661025808)" lucid:page-tab-id="L4mZqzvK3nZP"><path d="M0-500h1000V500H0z" fill="#fff"/><g filter="url(#a)"><path d="M447.33 223.15a6 6 0 0 1 6-6h413.34a6 6 0 0 1 6 6V456.2a6 6 0 0 1-6 6H453.33a6 6 0 0 1-6-6z" stroke="#3a414a" stroke-width="2" fill="#f2f3f5"/><use xlink:href="#b" transform="matrix(1,0,0,1,459.33333333333337,229.15398246064186) translate(318.47569444444446 17.22222222222222)"/><use xlink:href="#c" transform="matrix(1,0,0,1,459.33333333333337,229.15398246064186) translate(362.7638888888889 17.22222222222222)"/></g><path d="M468 255.73a6 6 0 0 1 6-6h69.33a6 6 0 0 1 6 6V434.1a6 6 0 0 1-6 6H474a6 6 0 0 1-6-6z" fill-opacity="0"/><path d="M487 249.73h8.67m8.66 0H513m8.67 0h8.66m8.67 0h4.33l.94.07.92.22.86.36.8.5.72.6.6.72.5.8.36.88.22.9.07.95v4.05m0 8.1V276m0 8.1v8.12m0 8.1v8.1m0 8.12v8.1m0 8.12v8.1m0 8.1v8.12m0 8.1v8.12m0 8.1v8.12m0 8.1v8.1m0 8.12v8.1m0 8.12v4.05l-.07.95-.22.9-.36.88-.5.8-.6.72-.72.6-.8.5-.87.37-.93.22-.94.07H539m-8.67 0h-8.66m-8.67 0h-8.67m-8.66 0H487m-8.67 0H474l-.94-.06-.9-.22-.88-.36-.8-.5-.72-.6-.6-.72-.5-.8-.37-.88-.23-.9-.07-.95v-4.04m0-8.1v-8.12m0-8.1v-8.12m0-8.1v-8.1m0-8.12v-8.1m0-8.12v-8.1m0-8.1v-8.12m0-8.1v-8.12m0-8.1v-8.12m0-8.1v-8.1m0-8.12v-8.1m0-8.12v-4.05l.07-.94.22-.92.35-.87.5-.8.6-.7.72-.62.8-.5.88-.36.9-.22.95-.07h4.33" stroke="#3a414a" stroke-width="2" fill="none"/><g filter="url(#d)"><path d="M447.33-3.73a6 6 0 0 1 6-6h413.34a6 6 0 0 1 6 6v189.05a6 6 0 0 1-6 6H453.33a6 6 0 0 1-6-6z" stroke="#1071e5" stroke-width="2" fill="#edf5ff"/><use xlink:href="#e" transform="matrix(1,0,0,1,459.33333333333337,2.2689283389741917) translate(182.30381944444446 17.22222222222222)"/><use xlink:href="#f" transform="matrix(1,0,0,1,459.33333333333337,2.2689283389741917) translate(233.24131944444446 17.22222222222222)"/><use xlink:href="#g" transform="matrix(1,0,0,1,459.33333333333337,2.2689283389741917) translate(315.19444444444446 17.22222222222222)"/></g><g filter="url(#h)"><path d="M774.24 273.82a6 6 0 0 1 6-6h41.25a6 6 0 0 1 6 6v27.94a6 6 0 0 1-6 6h-41.26a6 6 0 0 1-6-6z" stroke="#3a414a" stroke-width="2" fill="#fff"/><use xlink:href="#i" transform="matrix(1,0,0,1,786.2424258078407,279.8234224628294) translate(3.59375 17.22222222222222)"/></g><path d="M699.82 287.8h50.68" stroke="#3a414a" stroke-width="4" stroke-linejoin="round" fill="none"/><path d="M699.87 289.77h-2.05v-3.95h2.05z" stroke="#3a414a" stroke-width=".05" fill="#3a414a"/><path d="M766.77 287.8l-14.27 4.63v-9.28z" stroke="#3a414a" stroke-width="4" fill="#3a414a"/><g filter="url(#h)"><path d="M643.57 273.82a6 6 0 0 1 6-6h41.25a6 6 0 0 1 6 6v27.94a6 6 0 0 1-6 6h-41.25a6 6 0 0 1-6-6z" stroke="#3a414a" stroke-width="2" fill="#3a414a"/><use xlink:href="#j" transform="matrix(1,0,0,1,655.5702126372366,279.8234223792675) translate(-0.15625000000000178 17.22222222222222)"/></g><g filter="url(#k)" stroke="#1071e5" stroke-width="2"><path d="M715.84 320.35c0 1.46-5.95 2.65-13.27 2.65-7.33 0-13.28-1.2-13.28-2.65V299.1c0-1.45 5.94-2.64 13.27-2.64 7.32 0 13.26 1.2 13.26 2.65z" fill="#fff"/><path d="M715.84 299.1c0 1.48-5.95 2.67-13.27 2.67-7.33 0-13.28-1.2-13.28-2.66" fill="none"/></g><g filter="url(#h)"><path d="M482.17 273.82a6 6 0 0 1 6-6h41.25a6 6 0 0 1 6 6v27.94a6 6 0 0 1-6 6h-41.25a6 6 0 0 1-6-6z" stroke="#3a414a" stroke-width="2" fill="#fff"/><use xlink:href="#l" transform="matrix(1,0,0,1,494.17445958232315,279.8234223792675) translate(2.786458333333332 17.22222222222222)"/></g><path d="M571.1 289.77h-32.68v-3.95h32.7zm48.73 0h-32.16v-3.95h32.16z" stroke="#3a414a" stroke-width=".05" fill="#3a414a"/><path d="M538.47 289.77h-2.05v-3.95h2.05z" fill="#3a414a"/><path stroke="#3a414a" stroke-width=".05" fill="#3a414a"/><path d="M636.1 287.8l-14.27 4.63v-9.28z" fill="#3a414a"/><path d="M642.5 287.8l-22.64 7.34v-14.7zm-18.7 1.9l5.9-1.9-5.9-1.93z" stroke="#3a414a" stroke-width=".05" fill="#3a414a"/><use xlink:href="#m" transform="matrix(1,0,0,1,571.1117837829925,277.0354271606883) translate(0 17.22222222222222)"/><path d="M602.64 99.7h-21.56" stroke="#1071e5" stroke-width="2" fill="none"/><path d="M603.64 100.67h-1.03v-1.95h1.04z" stroke="#1071e5" stroke-width=".05" fill="#1071e5"/><path d="M565.8 99.7l14.28-4.64v9.28z" stroke="#1071e5" stroke-width="2" fill="#1071e5"/><path d="M509.77 230.23h-1.95v-59.65h1.95zm0-81.16h-1.95V129.2h1.95z" stroke="#1071e5" stroke-width=".05" fill="#1071e5"/><path d="M509.77 129.24h-1.95v-1.03h1.95z" fill="#1071e5"/><path stroke="#1071e5" stroke-width=".05" fill="#1071e5"/><path d="M508.8 245.5l-4.64-14.27h9.27z" fill="#1071e5"/><path d="M508.8 248.65l-5.98-18.4h11.95zm-3.3-16.45l3.3 10.14 3.3-10.14z" stroke="#1071e5" stroke-width=".05" fill="#1071e5"/><use xlink:href="#n" transform="matrix(1,0,0,1,491.6793549537442,149.0713370569762) translate(0 17.22222222222222)"/><g filter="url(#h)"><path d="M774.24 390.93a6 6 0 0 1 6-6h41.25a6 6 0 0 1 6 6v27.94a6 6 0 0 1-6 6h-41.26a6 6 0 0 1-6-6z" stroke="#3a414a" stroke-width="2" fill="#fff"/><use xlink:href="#i" transform="matrix(1,0,0,1,786.2424258078407,396.9330002813976) translate(3.59375 17.22222222222222)"/></g><path d="M699.82 404.9h50.68" stroke="#3a414a" stroke-width="4" stroke-linejoin="round" fill="none"/><path d="M699.87 406.88h-2.05v-3.95h2.05z" stroke="#3a414a" stroke-width=".05" fill="#3a414a"/><path d="M766.77 404.9l-14.27 4.64v-9.28z" stroke="#3a414a" stroke-width="4" fill="#3a414a"/><g filter="url(#h)"><path d="M643.57 390.93a6 6 0 0 1 6-6h41.25a6 6 0 0 1 6 6v27.94a6 6 0 0 1-6 6h-41.25a6 6 0 0 1-6-6z" stroke="#3a414a" stroke-width="2" fill="#3a414a"/><use xlink:href="#o" transform="matrix(1,0,0,1,655.5702126372366,396.9330001978357) translate(-1.9618055555555571 17.22222222222222)"/></g><g filter="url(#k)" stroke="#1071e5" stroke-width="2"><path d="M715.84 437.46c0 1.46-5.95 2.65-13.27 2.65-7.33 0-13.28-1.18-13.28-2.64v-21.24c0-1.46 5.94-2.65 13.27-2.65 7.32 0 13.26 1.2 13.26 2.65z" fill="#fff"/><path d="M715.84 416.22c0 1.47-5.95 2.66-13.27 2.66-7.33 0-13.28-1.2-13.28-2.66" fill="none"/></g><g filter="url(#p)"><path d="M456.02 78.2a6 6 0 0 1 6-6h93.56a6 6 0 0 1 6 6v43a6 6 0 0 1-6 6h-93.56a6 6 0 0 1-6-6z" stroke="#1071e5" stroke-width="2" fill="#fff"/><use xlink:href="#q" transform="matrix(1,0,0,1,462.0173703856161,78.18994862564557) translate(3.367187499999993 19.97222222222222)"/><use xlink:href="#r" transform="matrix(1,0,0,1,462.0173703856161,78.18994862564557) translate(5.654513888888893 41.482638888888886)"/></g><g filter="url(#h)"><path d="M482.17 390.93a6 6 0 0 1 6-6h41.25a6 6 0 0 1 6 6v27.94a6 6 0 0 1-6 6h-41.25a6 6 0 0 1-6-6z" stroke="#3a414a" stroke-width="2" fill="#fff"/><use xlink:href="#l" transform="matrix(1,0,0,1,494.17445958232315,396.9330001978357) translate(2.786458333333332 17.22222222222222)"/></g><path d="M574.37 406.88h-35.95v-3.95h35.95zm45.46 0h-35.4v-3.95h35.4z" stroke="#3a414a" stroke-width=".05" fill="#3a414a"/><path d="M538.47 406.88h-2.05v-3.95h2.05z" fill="#3a414a"/><path stroke="#3a414a" stroke-width=".05" fill="#3a414a"/><path d="M636.1 404.9l-14.27 4.64v-9.28z" fill="#3a414a"/><path d="M642.5 404.9l-22.64 7.35v-14.7zm-18.7 1.92l5.9-1.92-5.9-1.92z" stroke="#3a414a" stroke-width=".05" fill="#3a414a"/><use xlink:href="#s" transform="matrix(1,0,0,1,574.3669921163258,394.1450049792565) translate(0 17.22222222222222)"/><path d="M732.8 183.73v6.96h-.02v24.45" stroke="#1071e5" stroke-width="2" fill="none"/><path d="M732.8 168.47l4.63 14.26h-9.27z" stroke="#1071e5" stroke-width="2" fill="#1071e5"/><path d="M733.75 216.15h-1.95v-1.02h1.95z" stroke="#1071e5" stroke-width=".05" fill="#1071e5"/><g filter="url(#t)"><path d="M604.64 41.17a6 6 0 0 1 6-6h244.3a6 6 0 0 1 6 6v117.06a6 6 0 0 1-6 6h-244.3a6 6 0 0 1-6-6z" stroke="#1071e5" stroke-width="2" fill="#fff"/><use xlink:href="#u" transform="matrix(1,0,0,1,608.6381147811027,39.16911529231223) translate(0 21.03472222222222)"/><use xlink:href="#v" transform="matrix(1,0,0,1,608.6381147811027,39.16911529231223) translate(36.25 21.03472222222222)"/><use xlink:href="#w" transform="matrix(1,0,0,1,608.6381147811027,39.16911529231223) translate(0 40.392361111111114)"/><use xlink:href="#x" transform="matrix(1,0,0,1,608.6381147811027,39.16911529231223) translate(11.529947916666668 40.392361111111114)"/><use xlink:href="#y" transform="matrix(1,0,0,1,608.6381147811027,39.16911529231223) translate(76.82074652777779 40.392361111111114)"/><use xlink:href="#z" transform="matrix(1,0,0,1,608.6381147811027,39.16911529231223) translate(0 59.21397569444444)"/><use xlink:href="#A" transform="matrix(1,0,0,1,608.6381147811027,39.16911529231223) translate(11.529947916666668 59.21397569444444)"/><use xlink:href="#B" transform="matrix(1,0,0,1,608.6381147811027,39.16911529231223) translate(47.7072482638889 59.21397569444444)"/><use xlink:href="#C" transform="matrix(1,0,0,1,608.6381147811027,39.16911529231223) translate(98.14127604166669 59.21397569444444)"/><use xlink:href="#z" transform="matrix(1,0,0,1,608.6381147811027,39.16911529231223) translate(0 78.03559027777779)"/><use xlink:href="#D" transform="matrix(1,0,0,1,608.6381147811027,39.16911529231223) translate(11.529947916666668 78.03559027777779)"/><use xlink:href="#E" transform="matrix(1,0,0,1,608.6381147811027,39.16911529231223) translate(97.63997395833334 78.03559027777779)"/><use xlink:href="#z" transform="matrix(1,0,0,1,608.6381147811027,39.16911529231223) translate(0 96.85720486111111)"/><use xlink:href="#F" transform="matrix(1,0,0,1,608.6381147811027,39.16911529231223) translate(11.529947916666668 96.85720486111111)"/><use xlink:href="#G" transform="matrix(1,0,0,1,608.6381147811027,39.16911529231223) translate(144.53450520833331 96.85720486111111)"/><use xlink:href="#H" transform="matrix(1,0,0,1,608.6381147811027,39.16911529231223) translate(185.96028645833331 96.85720486111111)"/><use xlink:href="#z" transform="matrix(1,0,0,1,608.6381147811027,39.16911529231223) translate(0 115.67881944444444)"/><use xlink:href="#I" transform="matrix(1,0,0,1,608.6381147811027,39.16911529231223) translate(11.529947916666668 115.67881944444444)"/><use xlink:href="#J" transform="matrix(1,0,0,1,608.6381147811027,39.16911529231223) translate(82.79079861111113 115.67881944444444)"/></g><defs><path d="M659 0H135v-1490h529c448 0 721 280 721 744 0 466-273 746-726 746zM440-263h204c287 0 437-148 437-483 0-333-150-481-435-481H440v964" id="K"/><path d="M440 22C227 22 68-92 68-313c0-250 202-322 422-343 195-21 271-24 271-105 0-95-63-149-175-149-116 0-187 57-211 129l-275-46c57-194 237-305 487-305 240 0 474 108 474 379V0H777v-155h-10C713-51 605 22 440 22zm85-211c140 0 238-93 238-211v-121c-37 26-156 42-222 51-111 16-185 59-185 149 0 87 70 132 169 132" id="L"/><path d="M683-1118v229H474v562c0 71 29 104 102 104 23 0 73-7 95-13l43 225C647 9 580 16 520 16 296 16 174-96 174-301v-588H20v-229h154v-266h300v266h209" id="M"/><g id="b"><use transform="matrix(0.008680555555555556,0,0,0.008680555555555556,0,0)" xlink:href="#K"/><use transform="matrix(0.008680555555555556,0,0,0.008680555555555556,12.838541666666668,0)" xlink:href="#L"/><use transform="matrix(0.008680555555555556,0,0,0.008680555555555556,23.159722222222225,0)" xlink:href="#M"/><use transform="matrix(0.008680555555555556,0,0,0.008680555555555556,29.756944444444446,0)" xlink:href="#L"/></g><path d="M135 0v-1490h581c339 0 533 210 533 503 0 295-197 500-540 500H440V0H135zm305-733h220c186 0 274-104 274-254s-88-251-275-251H440v505" id="N"/><path d="M428-647V0H128v-1490h294v586c65-146 175-228 341-228 232 0 385 159 385 421V0H847v-659c0-139-76-222-202-222-128 0-217 86-217 234" id="O"/><g id="c"><use transform="matrix(0.008680555555555556,0,0,0.008680555555555556,0,0)" xlink:href="#N"/><use transform="matrix(0.008680555555555556,0,0,0.008680555555555556,11.293402777777779,0)" xlink:href="#L"/><use transform="matrix(0.008680555555555556,0,0,0.008680555555555556,21.614583333333336,0)" xlink:href="#M"/><use transform="matrix(0.008680555555555556,0,0,0.008680555555555556,28.168402777777782,0)" xlink:href="#O"/></g><filter id="a" filterUnits="objectBoundingBox" x="-.02" y="-.02" width="1.05" height="1.08"><feOffset result="offOut" in="SourceAlpha" dy="6"/><feGaussianBlur result="blurOut" in="offOut" stdDeviation="5"/><feColorMatrix result="colorOut" in="blurOut" values="0 0 0 0 0 0 0 0 0 0 0 0 0 0 0 0 0 0 0.5019607843137255 0"/><feBlend in="SourceGraphic" in2="colorOut"/></filter><path fill="#1071e5" d="M135 0v-1490h305v1237h643V0H135" id="P"/><path fill="#1071e5" d="M628 22C291 22 81-210 81-554c0-346 210-578 547-578 336 0 547 232 547 578 0 344-211 576-547 576zm0-236c160 0 242-146 242-341 0-197-82-341-242-341S387-753 387-555c0 195 81 341 241 341" id="Q"/><path fill="#1071e5" d="M628 22C291 22 81-210 81-554c0-346 210-578 547-578 265 0 455 142 497 372l-279 52c-25-116-99-188-215-188-160 0-244 139-244 341 0 200 84 341 244 341 116 0 193-74 217-195l279 51C1085-123 896 22 628 22" id="R"/><path fill="#1071e5" d="M440 22C227 22 68-92 68-313c0-250 202-322 422-343 195-21 271-24 271-105 0-95-63-149-175-149-116 0-187 57-211 129l-275-46c57-194 237-305 487-305 240 0 474 108 474 379V0H777v-155h-10C713-51 605 22 440 22zm85-211c140 0 238-93 238-211v-121c-37 26-156 42-222 51-111 16-185 59-185 149 0 87 70 132 169 132" id="S"/><path fill="#1071e5" d="M428-1490V0H128v-1490h300" id="T"/><g id="e"><use transform="matrix(0.008680555555555556,0,0,0.008680555555555556,0,0)" xlink:href="#P"/><use transform="matrix(0.008680555555555556,0,0,0.008680555555555556,10.052083333333334,0)" xlink:href="#Q"/><use transform="matrix(0.008680555555555556,0,0,0.008680555555555556,20.954861111111114,0)" xlink:href="#R"/><use transform="matrix(0.008680555555555556,0,0,0.008680555555555556,31.58854166666667,0)" xlink:href="#S"/><use transform="matrix(0.008680555555555556,0,0,0.008680555555555556,41.90972222222223,0)" xlink:href="#T"/></g><path fill="#1071e5" d="M659 0H135v-1490h529c448 0 721 280 721 744 0 466-273 746-726 746zM440-263h204c287 0 437-148 437-483 0-333-150-481-435-481H440v964" id="U"/><path fill="#1071e5" d="M683-1118v229H474v562c0 71 29 104 102 104 23 0 73-7 95-13l43 225C647 9 580 16 520 16 296 16 174-96 174-301v-588H20v-229h154v-266h300v266h209" id="V"/><path fill="#1071e5" d="M750-1118v229H516V0H217v-889H20v-229h197v-86c0-238 156-356 363-356 94 0 178 20 215 31l-54 226c-25-7-61-15-100-15-123-3-131 84-125 200h234" id="W"/><path fill="#1071e5" d="M361 0L31-1118h315c68 295 127 523 188 845 63-317 128-551 199-845h276c71 296 131 525 196 846 57-321 119-552 186-846h319L1378 0h-305c-73-261-148-486-204-771C813-484 740-261 666 0H361" id="X"/><g id="f"><use transform="matrix(0.008680555555555556,0,0,0.008680555555555556,0,0)" xlink:href="#U"/><use transform="matrix(0.008680555555555556,0,0,0.008680555555555556,12.838541666666668,0)" xlink:href="#S"/><use transform="matrix(0.008680555555555556,0,0,0.008680555555555556,23.159722222222225,0)" xlink:href="#V"/><use transform="matrix(0.008680555555555556,0,0,0.008680555555555556,29.756944444444446,0)" xlink:href="#S"/><use transform="matrix(0.008680555555555556,0,0,0.008680555555555556,40.078125,0)" xlink:href="#W"/><use transform="matrix(0.008680555555555556,0,0,0.008680555555555556,47.15277777777778,0)" xlink:href="#T"/><use transform="matrix(0.008680555555555556,0,0,0.008680555555555556,51.970486111111114,0)" xlink:href="#Q"/><use transform="matrix(0.008680555555555556,0,0,0.008680555555555556,62.630208333333336,0)" xlink:href="#X"/></g><path fill="#1071e5" d="M786 20C389 20 94-260 94-744c0-487 299-766 692-766 339 0 597 194 641 529h-309c-28-162-156-258-326-258-233 0-388 179-388 495 0 323 157 493 387 493 170 0 298-97 328-259h309c-34 277-266 530-642 530" id="Y"/><path fill="#1071e5" d="M428-647V0H128v-1118h283l4 231c63-156 176-245 348-245 232 0 384 159 384 421V0H847v-659c0-139-76-222-202-222-128 0-217 86-217 234" id="Z"/><path fill="#1071e5" d="M128 0v-1118h290v195h12c54-169 184-238 367-200v268c-27-8-86-15-130-15-138 0-239 95-239 234V0H128" id="aa"/><path fill="#1071e5" d="M633 22C291 22 81-200 81-553c0-345 210-579 537-579 292 0 525 185 525 567v84H378c7 183 109 277 260 277 105 0 184-46 216-132l272 51C1071-99 893 22 633 22zM380-669h474c-15-146-94-237-233-237-143 0-229 99-241 237" id="ab"/><g id="g"><use transform="matrix(0.008680555555555556,0,0,0.008680555555555556,0,0)" xlink:href="#Y"/><use transform="matrix(0.008680555555555556,0,0,0.008680555555555556,13.151041666666668,0)" xlink:href="#Q"/><use transform="matrix(0.008680555555555556,0,0,0.008680555555555556,24.053819444444446,0)" xlink:href="#Z"/><use transform="matrix(0.008680555555555556,0,0,0.008680555555555556,35.12152777777778,0)" xlink:href="#V"/><use transform="matrix(0.008680555555555556,0,0,0.008680555555555556,41.63194444444444,0)" xlink:href="#aa"/><use transform="matrix(0.008680555555555556,0,0,0.008680555555555556,48.4375,0)" xlink:href="#Q"/><use transform="matrix(0.008680555555555556,0,0,0.008680555555555556,59.34027777777778,0)" xlink:href="#T"/><use transform="matrix(0.008680555555555556,0,0,0.008680555555555556,64.15798611111111,0)" xlink:href="#T"/><use transform="matrix(0.008680555555555556,0,0,0.008680555555555556,68.97569444444444,0)" xlink:href="#ab"/><use transform="matrix(0.008680555555555556,0,0,0.008680555555555556,79.56597222222223,0)" xlink:href="#aa"/></g><filter id="d" filterUnits="objectBoundingBox" x="-.02" y="-.02" width="1.05" height="1.1"><feOffset result="offOut" in="SourceAlpha" dy="6"/><feGaussianBlur result="blurOut" in="offOut" stdDeviation="5"/><feColorMatrix result="colorOut" in="blurOut" values="0 0 0 0 0 0 0 0 0 0 0 0 0 0 0 0 0 0 0.5019607843137255 0"/><feBlend in="SourceGraphic" in2="colorOut"/></filter><path d="M180 0v-1490h908v168H370v486h669v168H370v500h727V0H180" id="ac"/><path d="M57 0l534-763-501-727h220c122 187 296 416 391 605 94-191 272-419 396-605h215L811-770 1340 0h-219C986-204 811-426 699-640 588-430 407-202 273 0H57" id="ad"/><g id="i"><use transform="matrix(0.008680555555555556,0,0,0.008680555555555556,0,0)" xlink:href="#ac"/><use transform="matrix(0.008680555555555556,0,0,0.008680555555555556,10.68576388888889,0)" xlink:href="#ad"/></g><filter id="h" filterUnits="objectBoundingBox" x="-.19" y="-.1" width="1.38" height="1.5"><feOffset result="offOut" in="SourceAlpha" dy="6"/><feGaussianBlur result="blurOut" in="offOut" stdDeviation="5"/><feColorMatrix result="colorOut" in="blurOut" values="0 0 0 0 0 0 0 0 0 0 0 0 0 0 0 0 0 0 0.5019607843137255 0"/><feBlend in="SourceGraphic" in2="colorOut"/></filter><path fill="#fff" d="M180 0v-1490h510c348 0 508 194 508 460 0 198-88 351-276 417L1256 0h-220L726-579c-117 2-238 0-356 1V0H180zm190-747h312c235 0 327-108 327-283 0-177-92-293-329-293H370v576" id="ae"/><path fill="#fff" d="M600 0v-610L52-1490h220l295 481c50 82 90 150 130 243 40-96 80-164 128-243l294-481h219L790-610V0H600" id="af"/><path fill="#fff" d="M653-1490V0H466v-1314h-10L96-1047v-204l324-239h233" id="ag"/><g id="j"><use transform="matrix(0.008680555555555556,0,0,0.008680555555555556,0,0)" xlink:href="#ae"/><use transform="matrix(0.008680555555555556,0,0,0.008680555555555556,11.015625000000002,0)" xlink:href="#af"/><use transform="matrix(0.008680555555555556,0,0,0.008680555555555556,23.081597222222225,0)" xlink:href="#ag"/></g><filter id="k" filterUnits="objectBoundingBox" x="-.38" y="-.15" width="1.75" height="1.75"><feOffset result="offOut" in="SourceAlpha" dy="6"/><feGaussianBlur result="blurOut" in="offOut" stdDeviation="5"/><feColorMatrix result="colorOut" in="blurOut" values="0 0 0 0 0 0 0 0 0 0 0 0 0 0 0 0 0 0 0.5019607843137255 0"/><feBlend in="SourceGraphic" in2="colorOut"/></filter><path d="M180 0v-1490h510c348 0 508 194 508 460 0 198-88 351-276 417L1256 0h-220L726-579c-117 2-238 0-356 1V0H180zm190-747h312c235 0 327-108 327-283 0-177-92-293-329-293H370v576" id="ah"/><path d="M783 20c-382 0-661-292-661-764 0-473 279-766 661-766 302 0 548 182 601 489h-190c-42-204-217-313-411-313-268 0-476 208-476 590 0 381 209 588 476 588 195 0 369-110 411-313h190c-52 303-296 489-601 489" id="ai"/><g id="l"><use transform="matrix(0.008680555555555556,0,0,0.008680555555555556,0,0)" xlink:href="#ah"/><use transform="matrix(0.008680555555555556,0,0,0.008680555555555556,11.440972222222223,0)" xlink:href="#ai"/></g><path fill="#333" d="M135 0v-1490h468l242 684c30 94 76 293 111 455 34-161 80-360 110-455l238-684h470V0h-307c0-447-3-765 11-1227-122 503-246 788-395 1227H826C676-435 552-717 427-1215c15 453 11 775 11 1215H135" id="aj"/><use transform="matrix(0.008680555555555556,0,0,0.008680555555555556,0,0)" xlink:href="#aj" id="m"/><path fill="#1071e5" d="M135 0v-1490h581c339 0 533 192 533 485 0 204-94 351-264 424L1302 0H964L680-532H440V0H135zm305-779h220c186 0 274-77 274-226 0-150-88-233-275-233H440v459" id="ak"/><path fill="#1071e5" d="M135 0v-1490h997v253H440v360h640v249H440v375h694V0H135" id="al"/><path fill="#1071e5" d="M135 0v-1490h591c327 0 492 160 492 383 0 177-115 286-268 320v15c168 8 326 140 326 361 0 236-176 411-512 411H135zm305-251h264c179 0 258-76 258-189 0-125-97-215-250-215H440v404zm0-613h241c131 0 228-74 228-194 0-109-79-183-222-183H440v377" id="am"/><g id="n"><use transform="matrix(0.008680555555555556,0,0,0.008680555555555556,0,0)" xlink:href="#ak"/><use transform="matrix(0.008680555555555556,0,0,0.008680555555555556,11.675347222222223,0)" xlink:href="#al"/><use transform="matrix(0.008680555555555556,0,0,0.008680555555555556,22.473958333333336,0)" xlink:href="#am"/></g><path fill="#fff" d="M154 0v-137l495-537c165-179 249-281 249-418 0-156-121-253-280-253-170 0-278 110-278 278H158c0-264 200-443 465-443 266 0 455 183 455 416 0 161-73 288-336 568L416-179v12h687V0H154" id="an"/><g id="o"><use transform="matrix(0.008680555555555556,0,0,0.008680555555555556,0,0)" xlink:href="#ae"/><use transform="matrix(0.008680555555555556,0,0,0.008680555555555556,11.015625000000002,0)" xlink:href="#af"/><use transform="matrix(0.008680555555555556,0,0,0.008680555555555556,23.081597222222225,0)" xlink:href="#an"/></g><path d="M52 0l541-1490h220L1361 0h-200l-149-416H398L254 0H52zm404-582h497c-103-290-145-390-251-756-108 377-145 460-246 756" id="ao"/><path d="M577 24c-279 0-473-224-473-580 0-354 195-576 474-576 218 0 287 134 324 193h14v-551h180V0H922v-173h-20C865-111 790 24 577 24zm27-161c203 0 314-172 314-421 0-247-108-413-314-413-212 0-317 181-317 413 0 235 108 421 317 421" id="ap"/><path d="M158 0v-1118h175l1 205c55-151 181-225 313-225 147 0 245 90 285 228 53-141 190-228 352-228 194 0 352 125 352 384V0h-181v-749c0-161-105-225-225-225-151 0-243 103-243 244V0H807v-767c0-124-93-207-219-207-131 0-250 92-250 270V0H158" id="aq"/><path d="M158 0v-1118h180V0H158zm91-1301c-68 0-125-53-125-119s57-119 125-119c69 0 126 53 126 119s-57 119-126 119" id="ar"/><path d="M538 24C308 24 148-78 108-271l171-41c32 123 123 178 257 178 156 0 256-77 256-169 0-77-54-128-164-154l-186-44c-203-48-300-148-300-305 0-192 176-326 414-326 230 0 351 112 402 269l-163 42c-31-80-94-158-238-158-133 0-233 69-233 162 0 83 57 129 188 160l169 40c203 48 298 149 298 302 0 196-179 339-441 339" id="as"/><path d="M613 24c-304 0-509-231-509-576 0-350 205-580 509-580 305 0 511 230 511 580 0 345-206 576-511 576zm0-161c226 0 329-195 329-415 0-222-103-419-329-419-223 0-326 196-326 419 0 220 103 415 326 415" id="at"/><path d="M338-670V0H158v-1118h173l1 207c72-158 192-221 342-221 226 0 378 139 378 422V0H872v-695c0-172-96-275-252-275-161 0-282 109-282 300" id="au"/><g id="q"><use transform="matrix(0.008680555555555556,0,0,0.008680555555555556,0,0)" xlink:href="#ao"/><use transform="matrix(0.008680555555555556,0,0,0.008680555555555556,12.265625,0)" xlink:href="#ap"/><use transform="matrix(0.008680555555555556,0,0,0.008680555555555556,23.151041666666668,0)" xlink:href="#aq"/><use transform="matrix(0.008680555555555556,0,0,0.008680555555555556,38.723958333333336,0)" xlink:href="#ar"/><use transform="matrix(0.008680555555555556,0,0,0.008680555555555556,43.02951388888889,0)" xlink:href="#as"/><use transform="matrix(0.008680555555555556,0,0,0.008680555555555556,52.41319444444445,0)" xlink:href="#as"/><use transform="matrix(0.008680555555555556,0,0,0.008680555555555556,61.79687500000001,0)" xlink:href="#ar"/><use transform="matrix(0.008680555555555556,0,0,0.008680555555555556,66.10243055555556,0)" xlink:href="#at"/><use transform="matrix(0.008680555555555556,0,0,0.008680555555555556,76.76215277777779,0)" xlink:href="#au"/></g><path d="M598-1118v154H368v674c0 100 37 144 132 144 23 0 62-6 92-12L629-6c-37 13-88 20-134 20-193 0-307-107-307-290v-688H20v-154h168v-266h180v266h230" id="av"/><path d="M158 0v-1118h174v172h12c41-113 157-188 290-188 26 0 70 2 91 3v181c-11-2-60-10-108-10-161 0-279 109-279 260V0H158" id="aw"/><path d="M338-1490V0H158v-1490h180" id="ax"/><path d="M628 24c-324 0-524-230-524-574 0-343 198-582 503-582 237 0 487 146 487 559v75H286c9 234 145 362 343 362 132 0 231-58 273-172l174 48C1024-91 857 24 628 24zM287-650h624c-17-190-120-322-304-322-192 0-309 151-320 322" id="ay"/><g id="r"><use transform="matrix(0.008680555555555556,0,0,0.008680555555555556,0,0)" xlink:href="#ai"/><use transform="matrix(0.008680555555555556,0,0,0.008680555555555556,12.986111111111112,0)" xlink:href="#at"/><use transform="matrix(0.008680555555555556,0,0,0.008680555555555556,23.645833333333336,0)" xlink:href="#au"/><use transform="matrix(0.008680555555555556,0,0,0.008680555555555556,34.14930555555556,0)" xlink:href="#av"/><use transform="matrix(0.008680555555555556,0,0,0.008680555555555556,39.96527777777778,0)" xlink:href="#aw"/><use transform="matrix(0.008680555555555556,0,0,0.008680555555555556,46.362847222222236,0)" xlink:href="#at"/><use transform="matrix(0.008680555555555556,0,0,0.008680555555555556,57.02256944444445,0)" xlink:href="#ax"/><use transform="matrix(0.008680555555555556,0,0,0.008680555555555556,61.32812500000001,0)" xlink:href="#ax"/><use transform="matrix(0.008680555555555556,0,0,0.008680555555555556,65.63368055555556,0)" xlink:href="#ay"/><use transform="matrix(0.008680555555555556,0,0,0.008680555555555556,75.99826388888889,0)" xlink:href="#aw"/></g><filter id="p" filterUnits="objectBoundingBox" x="-.09" y="-.07" width="1.19" height="1.36"><feOffset result="offOut" in="SourceAlpha" dy="6"/><feGaussianBlur result="blurOut" in="offOut" stdDeviation="5"/><feColorMatrix result="colorOut" in="blurOut" values="0 0 0 0 0 0 0 0 0 0 0 0 0 0 0 0 0 0 0.5019607843137255 0"/><feBlend in="SourceGraphic" in2="colorOut"/></filter><path fill="#333" d="M135 0v-1490h305v1237h643V0H135" id="az"/><use transform="matrix(0.008680555555555556,0,0,0.008680555555555556,0,0)" xlink:href="#az" id="s"/><path d="M180 0v-1490h190c0 262 1 526-3 784 217-279 467-523 702-784h249L716-845 1319 0h-225L585-716 370-489V0H180" id="aA"/><path d="M140 405l46-156c120 36 205 19 263-150l32-93L54-1118h197c107 313 237 620 324 950 87-331 219-637 326-950h196L606 167c-68 178-176 259-334 259-64 0-113-12-132-21" id="aB"/><g id="u"><use transform="matrix(0.008680555555555556,0,0,0.008680555555555556,0,0)" xlink:href="#aA"/><use transform="matrix(0.008680555555555556,0,0,0.008680555555555556,11.241319444444445,0)" xlink:href="#ay"/><use transform="matrix(0.008680555555555556,0,0,0.008680555555555556,21.258680555555557,0)" xlink:href="#aB"/><path d="M-.9 3.63h38.04v1.22H-.9z"/></g><path d="M180 0v-1490h270l367 940c28 72 75 218 110 339 35-117 81-264 110-339l362-940h271V0h-187c2-448-5-837 7-1287-157 497-311 829-483 1287H842C666-458 514-784 354-1284c12 438 5 843 7 1284H180" id="aC"/><path d="M613 24c-304 0-509-231-509-576 0-350 205-580 509-580 216 0 392 114 453 309l-173 49c-33-115-133-197-280-197-223 0-326 196-326 419 0 220 103 415 326 415 150 0 252-85 285-206l172 49C1010-95 832 24 613 24" id="aD"/><path d="M295 13c-75 0-135-60-135-135s60-135 135-135 135 60 135 135S370 13 295 13zm0-809c-75 0-135-60-135-135s60-135 135-135 135 60 135 135-60 135-135 135" id="aE"/><g id="v"><use transform="matrix(0.008680555555555556,0,0,0.008680555555555556,0,0)" xlink:href="#aC"/><use transform="matrix(0.008680555555555556,0,0,0.008680555555555556,16.05902777777778,0)" xlink:href="#ay"/><use transform="matrix(0.008680555555555556,0,0,0.008680555555555556,26.423611111111118,0)" xlink:href="#av"/><use transform="matrix(0.008680555555555556,0,0,0.008680555555555556,32.239583333333336,0)" xlink:href="#aw"/><use transform="matrix(0.008680555555555556,0,0,0.008680555555555556,39.21006944444444,0)" xlink:href="#ar"/><use transform="matrix(0.008680555555555556,0,0,0.008680555555555556,43.51562500000001,0)" xlink:href="#aD"/><use transform="matrix(0.008680555555555556,0,0,0.008680555555555556,53.67187500000001,0)" xlink:href="#as"/><path d="M-.9 3.63h64.84v1.22H-.9z"/><use transform="matrix(0.008680555555555556,0,0,0.008680555555555556,63.055555555555564,0)" xlink:href="#aE"/></g><path d="M798-719v166H144v-166h654" id="aF"/><use transform="matrix(0.007595486111111112,0,0,0.007595486111111112,0,0)" xlink:href="#aF" id="w"/><g id="x"><use transform="matrix(0.007595486111111112,0,0,0.007595486111111112,0,0)" xlink:href="#aC"/><use transform="matrix(0.007595486111111112,0,0,0.007595486111111112,14.051649305555557,0)" xlink:href="#ay"/><use transform="matrix(0.007595486111111112,0,0,0.007595486111111112,23.120659722222225,0)" xlink:href="#aq"/><use transform="matrix(0.007595486111111112,0,0,0.007595486111111112,36.74696180555556,0)" xlink:href="#at"/><use transform="matrix(0.007595486111111112,0,0,0.007595486111111112,46.07421875,0)" xlink:href="#aw"/><use transform="matrix(0.007595486111111112,0,0,0.007595486111111112,52.17339409722222,0)" xlink:href="#aB"/></g><path d="M537 14c-226 0-379-139-379-422v-710h180v695c0 172 97 275 253 275 160 0 281-109 281-300v-670h181V0H879v-209C806-46 684 14 537 14" id="aG"/><path d="M471 26C259 26 90-98 90-318c0-256 228-303 435-329 202-27 287-16 287-108 0-139-79-219-234-219-161 0-248 86-283 164l-173-57c86-203 278-265 451-265 150 0 419 46 419 395V0H815v-152h-12C765-73 660 26 471 26zm31-159c199 0 310-134 310-271v-155c-30 35-226 55-295 64-131 17-246 59-246 186 0 116 97 176 231 176" id="aH"/><path d="M611 442c-248 0-391-105-460-228l146-94c47 65 117 165 314 165 178 0 307-82 307-266v-224h-17C863-141 792-18 576-18c-268 0-472-195-472-546 0-346 197-568 476-568 216 0 288 133 326 193h17v-179h175V29c0 289-215 413-487 413zm-5-620c203 0 314-146 314-390 0-237-108-403-314-403-213 0-319 180-319 403 0 230 109 390 319 390" id="aI"/><g id="y"><use transform="matrix(0.007595486111111112,0,0,0.007595486111111112,0,0)" xlink:href="#aG"/><use transform="matrix(0.007595486111111112,0,0,0.007595486111111112,9.198133680555557,0)" xlink:href="#as"/><use transform="matrix(0.007595486111111112,0,0,0.007595486111111112,17.40885416666667,0)" xlink:href="#aH"/><use transform="matrix(0.007595486111111112,0,0,0.007595486111111112,26.14366319444445,0)" xlink:href="#aI"/><use transform="matrix(0.007595486111111112,0,0,0.007595486111111112,35.68359375000001,0)" xlink:href="#ay"/></g><use transform="matrix(0.007595486111111112,0,0,0.007595486111111112,0,0)" xlink:href="#aF" id="z"/><g id="A"><use transform="matrix(0.007595486111111112,0,0,0.007595486111111112,0,0)" xlink:href="#aC"/><use transform="matrix(0.007595486111111112,0,0,0.007595486111111112,14.051649305555557,0)" xlink:href="#as"/><use transform="matrix(0.007595486111111112,0,0,0.007595486111111112,22.26236979166667,0)" xlink:href="#aI"/></g><path d="M1096 418H916v-591h-14C865-111 790 24 577 24c-279 0-473-224-473-580 0-354 195-576 474-576 218 0 287 134 324 193h20v-179h174V418zM604-137c203 0 314-172 314-421 0-247-108-413-314-413-212 0-317 181-317 413 0 235 108 421 317 421" id="aJ"/><g id="B"><use transform="matrix(0.007595486111111112,0,0,0.007595486111111112,0,0)" xlink:href="#aJ"/><use transform="matrix(0.007595486111111112,0,0,0.007595486111111112,9.524739583333334,0)" xlink:href="#aG"/><use transform="matrix(0.007595486111111112,0,0,0.007595486111111112,18.722873263888893,0)" xlink:href="#ay"/><use transform="matrix(0.007595486111111112,0,0,0.007595486111111112,27.79188368055556,0)" xlink:href="#aG"/><use transform="matrix(0.007595486111111112,0,0,0.007595486111111112,36.990017361111114,0)" xlink:href="#ay"/></g><path d="M158 418v-1536h174v179h20c37-59 106-193 324-193 279 0 474 222 474 576 0 356-194 580-473 580-213 0-288-135-325-197h-14v591H158zm492-555c209 0 317-186 317-421 0-232-105-413-317-413-206 0-314 166-314 413 0 249 111 421 314 421" id="aK"/><path d="M338-670V0H158v-1490h180v566c73-149 190-208 336-208 226 0 379 139 379 422V0H872v-695c0-172-96-275-252-275-161 0-282 109-282 300" id="aL"/><g id="C"><use transform="matrix(0.007595486111111112,0,0,0.007595486111111112,0,0)" xlink:href="#ap"/><use transform="matrix(0.007595486111111112,0,0,0.007595486111111112,9.524739583333334,0)" xlink:href="#ay"/><use transform="matrix(0.007595486111111112,0,0,0.007595486111111112,18.59375,0)" xlink:href="#aK"/><use transform="matrix(0.007595486111111112,0,0,0.007595486111111112,28.118489583333336,0)" xlink:href="#av"/><use transform="matrix(0.007595486111111112,0,0,0.007595486111111112,33.20746527777778,0)" xlink:href="#aL"/><use transform="matrix(0.007595486111111112,0,0,0.007595486111111112,42.405598958333336,0)" xlink:href="#as"/></g><path d="M180 0v-1490h510c348 0 508 209 508 474 0 266-160 477-507 477H370V0H180zm190-706h312c236 0 327-133 327-310 0-176-91-307-329-307H370v617" id="aM"/><g id="D"><use transform="matrix(0.007595486111111112,0,0,0.007595486111111112,0,0)" xlink:href="#aM"/><use transform="matrix(0.007595486111111112,0,0,0.007595486111111112,9.934895833333334,0)" xlink:href="#aw"/><use transform="matrix(0.007595486111111112,0,0,0.007595486111111112,15.532769097222221,0)" xlink:href="#at"/><use transform="matrix(0.007595486111111112,0,0,0.007595486111111112,24.860026041666664,0)" xlink:href="#aD"/><use transform="matrix(0.007595486111111112,0,0,0.007595486111111112,33.746744791666664,0)" xlink:href="#ay"/><use transform="matrix(0.007595486111111112,0,0,0.007595486111111112,42.81575520833333,0)" xlink:href="#as"/><use transform="matrix(0.007595486111111112,0,0,0.007595486111111112,51.02647569444444,0)" xlink:href="#as"/><use transform="matrix(0.007595486111111112,0,0,0.007595486111111112,59.23719618055556,0)" xlink:href="#ar"/><use transform="matrix(0.007595486111111112,0,0,0.007595486111111112,63.00455729166667,0)" xlink:href="#au"/><use transform="matrix(0.007595486111111112,0,0,0.007595486111111112,72.19509548611111,0)" xlink:href="#aI"/></g><path d="M692-1560L212 224H46l480-1784h166" id="aN"/><g id="E"><use transform="matrix(0.007595486111111112,0,0,0.007595486111111112,0,0)" xlink:href="#ax"/><use transform="matrix(0.007595486111111112,0,0,0.007595486111111112,3.7673611111111116,0)" xlink:href="#aH"/><use transform="matrix(0.007595486111111112,0,0,0.007595486111111112,12.50217013888889,0)" xlink:href="#av"/><use transform="matrix(0.007595486111111112,0,0,0.007595486111111112,17.439236111111114,0)" xlink:href="#ay"/><use transform="matrix(0.007595486111111112,0,0,0.007595486111111112,26.508246527777782,0)" xlink:href="#au"/><use transform="matrix(0.007595486111111112,0,0,0.007595486111111112,35.69878472222223,0)" xlink:href="#aD"/><use transform="matrix(0.007595486111111112,0,0,0.007595486111111112,44.281684027777786,0)" xlink:href="#aB"/><use transform="matrix(0.007595486111111112,0,0,0.007595486111111112,52.143012152777786,0)" xlink:href="#aN"/><use transform="matrix(0.007595486111111112,0,0,0.007595486111111112,57.748480902777786,0)" xlink:href="#au"/><use transform="matrix(0.007595486111111112,0,0,0.007595486111111112,66.93901909722223,0)" xlink:href="#at"/><use transform="matrix(0.007595486111111112,0,0,0.007595486111111112,76.26627604166667,0)" xlink:href="#ap"/><use transform="matrix(0.007595486111111112,0,0,0.007595486111111112,85.791015625,0)" xlink:href="#ay"/></g><path d="M98-1322v-168h1126v168H757V0H567v-1322H98" id="aO"/><g id="F"><use transform="matrix(0.007595486111111112,0,0,0.007595486111111112,0,0)" xlink:href="#aO"/><use transform="matrix(0.007595486111111112,0,0,0.007595486111111112,10.04123263888889,0)" xlink:href="#aL"/><use transform="matrix(0.007595486111111112,0,0,0.007595486111111112,19.239366319444446,0)" xlink:href="#aw"/><use transform="matrix(0.007595486111111112,0,0,0.007595486111111112,24.837239583333336,0)" xlink:href="#at"/><use transform="matrix(0.007595486111111112,0,0,0.007595486111111112,34.16449652777778,0)" xlink:href="#aG"/><use transform="matrix(0.007595486111111112,0,0,0.007595486111111112,43.362630208333336,0)" xlink:href="#aI"/><use transform="matrix(0.007595486111111112,0,0,0.007595486111111112,52.90256076388889,0)" xlink:href="#aL"/><use transform="matrix(0.007595486111111112,0,0,0.007595486111111112,62.10069444444445,0)" xlink:href="#aK"/><use transform="matrix(0.007595486111111112,0,0,0.007595486111111112,71.62543402777779,0)" xlink:href="#aG"/><use transform="matrix(0.007595486111111112,0,0,0.007595486111111112,80.82356770833334,0)" xlink:href="#av"/><use transform="matrix(0.007595486111111112,0,0,0.007595486111111112,85.91254340277779,0)" xlink:href="#aN"/><use transform="matrix(0.007595486111111112,0,0,0.007595486111111112,91.51801215277779,0)" xlink:href="#au"/><use transform="matrix(0.007595486111111112,0,0,0.007595486111111112,100.70855034722223,0)" xlink:href="#at"/><use transform="matrix(0.007595486111111112,0,0,0.007595486111111112,110.03580729166667,0)" xlink:href="#ap"/><use transform="matrix(0.007595486111111112,0,0,0.007595486111111112,119.560546875,0)" xlink:href="#ay"/></g><path d="M218-607c0-325 108-727 258-974h175c-155 315-250 682-250 974 0 265 78 531 250 886H476C306-10 218-315 218-607" id="aP"/><g id="G"><use transform="matrix(0.007595486111111112,0,0,0.007595486111111112,0,0)" xlink:href="#aP"/><use transform="matrix(0.007595486111111112,0,0,0.007595486111111112,5.673828125000001,0)" xlink:href="#aq"/><use transform="matrix(0.007595486111111112,0,0,0.007595486111111112,19.300130208333336,0)" xlink:href="#as"/><use transform="matrix(0.007595486111111112,0,0,0.007595486111111112,27.51085069444445,0)" xlink:href="#aI"/></g><path d="M96 279C273-86 346-350 346-607c0-292-95-659-250-974h175c150 246 258 650 258 974 0 297-91 602-258 886H96" id="aQ"/><g id="H"><use transform="matrix(0.007595486111111112,0,0,0.007595486111111112,0,0)" xlink:href="#ar"/><use transform="matrix(0.007595486111111112,0,0,0.007595486111111112,3.7673611111111116,0)" xlink:href="#au"/><use transform="matrix(0.007595486111111112,0,0,0.007595486111111112,12.957899305555557,0)" xlink:href="#aN"/><use transform="matrix(0.007595486111111112,0,0,0.007595486111111112,18.563368055555557,0)" xlink:href="#at"/><use transform="matrix(0.007595486111111112,0,0,0.007595486111111112,27.890625,0)" xlink:href="#aG"/><use transform="matrix(0.007595486111111112,0,0,0.007595486111111112,37.08875868055556,0)" xlink:href="#av"/><use transform="matrix(0.007595486111111112,0,0,0.007595486111111112,42.177734375,0)" xlink:href="#aQ"/></g><g id="I"><use transform="matrix(0.007595486111111112,0,0,0.007595486111111112,0,0)" xlink:href="#aC"/><use transform="matrix(0.007595486111111112,0,0,0.007595486111111112,14.051649305555557,0)" xlink:href="#ay"/><use transform="matrix(0.007595486111111112,0,0,0.007595486111111112,23.120659722222225,0)" xlink:href="#as"/><use transform="matrix(0.007595486111111112,0,0,0.007595486111111112,31.331380208333336,0)" xlink:href="#as"/><use transform="matrix(0.007595486111111112,0,0,0.007595486111111112,39.54210069444445,0)" xlink:href="#aH"/><use transform="matrix(0.007595486111111112,0,0,0.007595486111111112,48.27690972222223,0)" xlink:href="#aI"/><use transform="matrix(0.007595486111111112,0,0,0.007595486111111112,57.816840277777786,0)" xlink:href="#ay"/></g><path d="M126 0v-134l627-806v-11H146v-167h839v143L376-178v11h629V0H126" id="aR"/><g id="J"><use transform="matrix(0.007595486111111112,0,0,0.007595486111111112,0,0)" xlink:href="#as"/><use transform="matrix(0.007595486111111112,0,0,0.007595486111111112,8.210720486111112,0)" xlink:href="#ar"/><use transform="matrix(0.007595486111111112,0,0,0.007595486111111112,11.978081597222225,0)" xlink:href="#aR"/><use transform="matrix(0.007595486111111112,0,0,0.007595486111111112,20.340711805555557,0)" xlink:href="#ay"/></g><filter id="t" filterUnits="objectBoundingBox" x="-.04" y="-.03" width="1.08" height="1.15"><feOffset result="offOut" in="SourceAlpha" dy="6"/><feGaussianBlur result="blurOut" in="offOut" stdDeviation="5"/><feColorMatrix result="colorOut" in="blurOut" values="0 0 0 0 0 0 0 0 0 0 0 0 0 0 0 0 0 0 0.5019607843137255 0"/><feBlend in="SourceGraphic" in2="colorOut"/></filter></defs></g></svg>